PathFileType	4	(X/Y/Z)	/Users/itak/Documents/Research/Walk-IL/dataset/trc/00554_00009.trc
DataRate	CameraRate	NumFrames	NumMarkers	Units	OrigDataRate	OrigDataStartFrame	OrigNumFrames
100.000000	100.000000	4	53	mm	100.000000	0	482
Frame#	Time	RPSI			LPSI			L3			STRN			T10			C7			CLAV			RBAK			LBAK			LSHO			LUPA			LAEL			LAOL			LWTS			LWPS			LFRA			LIFD			LHPS			LHTS			RSHO			RUPA			RAEL			RAOL			RWTS			RWPS			RFRA			RIFD			RHTS			RHPS			RBHD			LFHD			RFHD			LBHD			RHIP			RASI			LASI			LKNE			LTHI			LANK			LTIP			LTOE			LMT1			LMT5			LHEE			RKNE			RTHI			RANK			RTIP			RTOE			RMT1			RMT5			RHEE			LHIP			
		X1	Y1	Z1	X2	Y2	Z2	X3	Y3	Z3	X4	Y4	Z4	X5	Y5	Z5	X6	Y6	Z6	X7	Y7	Z7	X8	Y8	Z8	X9	Y9	Z9	X10	Y10	Z10	X11	Y11	Z11	X12	Y12	Z12	X13	Y13	Z13	X14	Y14	Z14	X15	Y15	Z15	X16	Y16	Z16	X17	Y17	Z17	X18	Y18	Z18	X19	Y19	Z19	X20	Y20	Z20	X21	Y21	Z21	X22	Y22	Z22	X23	Y23	Z23	X24	Y24	Z24	X25	Y25	Z25	X26	Y26	Z26	X27	Y27	Z27	X28	Y28	Z28	X29	Y29	Z29	X30	Y30	Z30	X31	Y31	Z31	X32	Y32	Z32	X33	Y33	Z33	X34	Y34	Z34	X35	Y35	Z35	X36	Y36	Z36	X37	Y37	Z37	X38	Y38	Z38	X39	Y39	Z39	X40	Y40	Z40	X41	Y41	Z41	X42	Y42	Z42	X43	Y43	Z43	X44	Y44	Z44	X45	Y45	Z45	X46	Y46	Z46	X47	Y47	Z47	X48	Y48	Z48	X49	Y49	Z49	X50	Y50	Z50	X51	Y51	Z51	X52	Y52	Z52	X53	Y53	Z53	

1	0	-1138.786743164062	1009.2900390625	184.9981842041016	-1107.846313476562	1012.909545898438	55.71528244018555	-1120.991821289062	1105.97021484375	116.5608596801758	-885.877197265625	1295.324829101562	151.5408935546875	-1125.779174804688	1232.084228515625	113.5421447753906	-1077.838012695312	1505.152221679688	132.3267059326172	-903.9398803710938	1406.251708984375	148.6107177734375	-1162.277465820312	1380.092529296875	204.2722473144531	-1096.89306640625	1453.03466796875	37.41518402099609	-988.62841796875	1480.203979492188	-28.42297172546387	-983.9210815429688	1351.971313476562	-106.9991073608398	-946.7820434570312	1130.590087890625	-116.2581176757812	-1044.21630859375	1119.671508789062	-91.0947265625	-869.4848022460938	889.6536254882812	-38.06225967407227	-889.0107421875	865.7293090820312	-119.2523345947266	-921.1868286132812	1044.535766601562	-114.3730697631836	-868.7612915039062	723.2322998046875	-36.86019515991211	-879.9747924804688	806.7647094726562	-108.0425872802734	-844.9879760742188	813.9592895507812	-49.58168411254883	-1044.633422851562	1468.483764648438	293.6057434082031	-1074.193481445312	1404.603393554688	357.3411560058594	-1080.7275390625	1115.885620117188	404.1609802246094	-1133.270751953125	1098.687866210938	373.1226196289062	-943.418701171875	895.8095092773438	373.5122680664062	-992.3272094726562	875.4570922851562	437.3311157226562	-1070.303833007812	1060.263671875	412.5922241210938	-932.8859252929688	723.82763671875	376.1016845703125	-915.1390991210938	805.166259765625	390.4564819335938	-973.8221435546875	801.56787109375	437.3948974609375	-1006.369140625	1687.621459960938	205.8569488525391	-827.9181518554688	1702.663208007812	101.4081497192383	-870.5145874023438	1702.347290039062	238.9492797851562	-950.2637939453125	1686.21630859375	50.07386779785156	-1039.661865234375	938.3927001953125	327.4576721191406	-943.9660034179688	971.7250366210938	288.6873168945312	-885.0863647460938	966.2122192382812	16.3897819519043	-928.431396484375	495.2534790039062	31.36020469665527	-927.5679931640625	659.7057495117188	-9.20518970489502	-1036.202270507812	32.41740417480469	35.11168670654297	-1002.774353027344	249.2954559326172	23.49589538574219	-836.5802001953125	38.06641006469727	123.0867614746094	-912.07958984375	41.34614944458008	149.1415405273438	-912.4317016601562	34.96392822265625	40.03605270385742	-1113.110107421875	34.12567901611328	77.68033599853516	-966.4140625	497.7149963378906	300.4251098632812	-990.7452392578125	786.9850463867188	338.2086486816406	-1084.921020507812	36.12537384033203	284.9679870605469	-971.0689697265625	350.8148803710938	290.3448181152344	-861.0492553710938	38.89917373657227	263.0431213378906	-921.2285766601562	37.96403121948242	215.6729278564453	-952.340576171875	37.87312316894531	315.3644409179688	-1135.493041992188	25.54512023925781	225.7279663085938	-947.087158203125	931.740966796875	-39.66904449462891	
2	0.01	-1138.836303710938	1009.288818359375	184.9721832275391	-1107.898803710938	1012.913696289062	55.71024703979492	-1121.063598632812	1105.9892578125	116.5462799072266	-885.8903198242188	1295.388671875	151.4626617431641	-1125.814453125	1232.088989257812	113.5283279418945	-1077.839111328125	1505.154907226562	132.3139038085938	-903.9571533203125	1406.246337890625	148.5915679931641	-1162.273681640625	1380.103149414062	204.2578735351562	-1096.907836914062	1453.04345703125	37.40716934204102	-988.64501953125	1480.207397460938	-28.44102478027344	-983.9501342773438	1351.951904296875	-107.0043334960938	-946.8294677734375	1130.557983398438	-116.2221527099609	-1044.259887695312	1119.652099609375	-91.06359100341797	-869.5460205078125	889.6626586914062	-37.91989135742188	-888.976806640625	865.7109985351562	-119.142333984375	-921.2078247070312	1044.516845703125	-114.3116836547852	-868.7828979492188	723.3060302734375	-36.69775390625	-880.0057983398438	806.7667236328125	-107.8402938842773	-844.9791259765625	814.0073852539062	-49.52933502197266	-1044.629516601562	1468.484375	293.5987243652344	-1074.175903320312	1404.59521484375	357.3154907226562	-1080.705932617188	1115.85986328125	404.09814453125	-1133.278564453125	1098.684448242188	373.0965576171875	-943.44677734375	895.8291625976562	373.4178466796875	-992.2787475585938	875.4337158203125	437.2239379882812	-1070.287109375	1060.250854492188	412.5299072265625	-932.8412475585938	723.8185424804688	375.9357299804688	-915.0447998046875	805.1564331054688	390.3876647949219	-973.822021484375	801.5582275390625	437.3204956054688	-1006.350402832031	1687.623413085938	205.8424224853516	-827.9266967773438	1702.65576171875	101.38134765625	-870.4737548828125	1702.353881835938	238.9036865234375	-950.2672119140625	1686.2099609375	50.0525016784668	-1039.69140625	938.3929443359375	327.4256286621094	-944.0016479492188	971.6978149414062	288.64404296875	-885.1414794921875	966.1815185546875	16.36840438842773	-928.4500732421875	495.2547607421875	31.33804512023926	-927.5845947265625	659.7046508789062	-9.2166748046875	-1036.208984375	32.419921875	35.10288238525391	-1002.783264160156	249.2853088378906	23.49143218994141	-836.5684204101562	38.06446838378906	123.0744323730469	-912.09423828125	41.34310150146484	149.1538543701172	-912.4352416992188	34.96480941772461	40.03268814086914	-1113.1162109375	34.11858749389648	77.68638610839844	-966.42724609375	497.7191162109375	300.4161682128906	-990.7474365234375	786.9873046875	338.1345825195312	-1084.906860351562	36.12404251098633	284.9773864746094	-971.05419921875	350.8258361816406	290.3072204589844	-861.0499267578125	38.8988151550293	263.042724609375	-921.2275390625	37.96334075927734	215.6725158691406	-952.3417358398438	37.87546539306641	315.364013671875	-1135.496337890625	25.54156494140625	225.7296142578125	-947.1682739257812	931.7339477539062	-39.71539688110352	
3	0.02	-1138.8916015625	1009.288635253906	184.9366302490234	-1107.959106445312	1012.918395996094	55.6991081237793	-1121.141723632812	1106.01025390625	116.5244216918945	-885.9077758789062	1295.454223632812	151.3767395019531	-1125.854614257812	1232.095703125	113.5106201171875	-1077.837768554688	1505.160034179688	132.2974548339844	-903.9744262695312	1406.239990234375	148.5640563964844	-1162.270263671875	1380.1171875	204.2414703369141	-1096.924560546875	1453.0537109375	37.39657974243164	-988.664306640625	1480.211303710938	-28.46385955810547	-983.9839477539062	1351.927978515625	-107.0124053955078	-946.8911743164062	1130.518676757812	-116.1746978759766	-1044.316040039062	1119.629150390625	-91.01882171630859	-869.6143188476562	889.6766967773438	-37.73871612548828	-888.92919921875	865.6898803710938	-119.0043029785156	-921.2432250976562	1044.490478515625	-114.2247695922852	-868.8101196289062	723.3839111328125	-36.50074768066406	-880.0363159179688	806.7628173828125	-107.599365234375	-844.9745483398438	814.0648193359375	-49.45179748535156	-1044.623413085938	1468.4853515625	293.5891723632812	-1074.154296875	1404.584716796875	357.2850341796875	-1080.679443359375	1115.830322265625	404.0196228027344	-1133.28662109375	1098.679077148438	373.0610046386719	-943.4810791015625	895.8511962890625	373.2970886230469	-992.2247924804688	875.404052734375	437.0942687988281	-1070.265625	1060.235107421875	412.4498596191406	-932.7901000976562	723.814208984375	375.7496337890625	-914.939453125	805.1414794921875	390.3034362792969	-973.8097534179688	801.5464477539062	437.2033386230469	-1006.321411132812	1687.624877929688	205.8217620849609	-827.9290771484375	1702.641845703125	101.343864440918	-870.420654296875	1702.361328125	238.8495788574219	-950.2685546875	1686.203735351562	50.0246696472168	-1039.730224609375	938.3922729492188	327.388916015625	-944.0421142578125	971.66943359375	288.5937805175781	-885.2003173828125	966.1452026367188	16.33928680419922	-928.4786376953125	495.2582702636719	31.31414794921875	-927.604736328125	659.7045288085938	-9.22971248626709	-1036.215576171875	32.420654296875	35.09473037719727	-1002.797180175781	249.2718811035156	23.48420333862305	-836.557373046875	38.06291198730469	123.0628890991211	-912.0970458984375	41.34176635742188	149.1483612060547	-912.4380493164062	34.96549606323242	40.0300178527832	-1113.120971679688	34.11140060424805	77.69147491455078	-966.4447631835938	497.7245178222656	300.4046936035156	-990.7678833007812	786.9913330078125	338.0556640625	-1084.893676757812	36.12258911132812	284.9859313964844	-971.0472412109375	350.8344116210938	290.2733764648438	-861.0513916015625	38.89831924438477	263.0423278808594	-921.22705078125	37.96392059326172	215.6725616455078	-952.3421020507812	37.87652206420898	315.3616638183594	-1135.499755859375	25.53647041320801	225.7317657470703	-947.259521484375	931.7273559570312	-39.77629852294922	
4	0.03	-1138.948852539062	1009.289672851562	184.8928375244141	-1108.022583007812	1012.923522949219	55.68036270141602	-1121.2177734375	1106.030883789062	116.4953994750977	-885.9291381835938	1295.512573242188	151.2920837402344	-1125.896240234375	1232.10498046875	113.4900436401367	-1077.833129882812	1505.167602539062	132.2781677246094	-903.9894409179688	1406.233154296875	148.5284881591797	-1162.26806640625	1380.133911132812	204.2245635986328	-1096.941650390625	1453.06494140625	37.38394546508789	-988.6851196289062	1480.215209960938	-28.49029541015625	-984.0198974609375	1351.901123046875	-107.0234222412109	-946.9639892578125	1130.474609375	-116.1173095703125	-1044.382202148438	1119.604248046875	-90.95989227294922	-869.6828002929688	889.6970825195312	-37.52571868896484	-888.8678588867188	865.66796875	-118.8443069458008	-921.2947387695312	1044.45654296875	-114.1125335693359	-868.8478393554688	723.454833984375	-36.27979278564453	-880.0608520507812	806.7509155273438	-107.3344650268555	-844.9746704101562	814.1284790039062	-49.34797286987305	-1044.615112304688	1468.486694335938	293.5773010253906	-1074.129760742188	1404.572021484375	357.252197265625	-1080.650268554688	1115.799438476562	403.9297180175781	-1133.29345703125	1098.671875	373.0160522460938	-943.5198364257812	895.8732299804688	373.1545715332031	-992.1715698242188	875.3694458007812	436.9494934082031	-1070.241455078125	1060.217041015625	412.3566589355469	-932.7362060546875	723.8165283203125	375.5565490722656	-914.8358154296875	805.1210327148438	390.2094116210938	-973.7825927734375	801.5328979492188	437.0411376953125	-1006.279541015625	1687.62548828125	205.7951049804688	-827.920654296875	1702.619384765625	101.2952117919922	-870.3564453125	1702.36865234375	238.7905883789062	-950.2656860351562	1686.198120117188	49.99129104614258	-1039.77783203125	938.389892578125	327.3497314453125	-944.0850219726562	971.6427612304688	288.5402221679688	-885.25439453125	966.1082153320312	16.30183029174805	-928.5180053710938	495.2642517089844	31.29160690307617	-927.6270751953125	659.705810546875	-9.242940902709961	-1036.220825195312	32.41997528076172	35.08815383911133	-1002.81640625	249.2560729980469	23.47390937805176	-836.5482788085938	38.06173706054688	123.0531311035156	-912.087890625	41.34212493896484	149.1255035400391	-912.4395751953125	34.96586227416992	40.02848815917969	-1113.124267578125	34.10465621948242	77.69536590576172	-966.4661865234375	497.7308349609375	300.3904724121094	-990.8069458007812	786.9971313476562	337.9767456054688	-1084.884033203125	36.12121963500977	284.9920043945312	-971.051513671875	350.8387145996094	290.248291015625	-861.0532836914062	38.89776992797852	263.0419006347656	-921.2271728515625	37.96568298339844	215.6729583740234	-952.3416137695312	37.87619400024414	315.3572692871094	-1135.5029296875	25.53009605407715	225.7344665527344	-947.351318359375	931.7251586914062	-39.85097885131836	
